<?xml version="1.0" encoding="UTF-8" standalone="no"?><svg xmlns="http://www.w3.org/2000/svg" xmlns:xlink="http://www.w3.org/1999/xlink" clip-rule="evenodd" stroke-miterlimit="10" viewBox="0 0 568 49"><desc>SVG generated by Keynote</desc><defs></defs><g transform="matrix(1.00, 0.00, -0.00, -1.00, 0.0, 49.0)"><image xlink:href="8AC9D9EFC8986C6D7D12B2AC23F423C9.png" width="565.00" height="47.00" transform="matrix(1.00, 0.00, -0.00, -1.00, 1.0, 48.0)"></image><text xml:space="preserve" font-family="HelveticaNeue-Medium,Helvetica Neue" font-size="52.0" fill="#EAEAEA" transform="matrix(1.00, 0.00, -0.00, -1.00, 1.6, 8.0)">I</text><text xml:space="preserve" font-family="HelveticaNeue-Medium,Helvetica Neue" font-size="52.0" fill="#EAEAEA" transform="matrix(1.00, 0.00, -0.00, -1.00, 16.1, 8.0)"> </text><text xml:space="preserve" font-family="HelveticaNeue-Medium,Helvetica Neue" font-size="52.0" fill="#EAEAEA" transform="matrix(1.00, 0.00, -0.00, -1.00, 30.5, 8.0)">b</text><text xml:space="preserve" font-family="HelveticaNeue-Medium,Helvetica Neue" font-size="52.0" fill="#EAEAEA" transform="matrix(1.00, 0.00, -0.00, -1.00, 62.3, 8.0)">e</text><text xml:space="preserve" font-family="HelveticaNeue-Medium,Helvetica Neue" font-size="52.0" fill="#EAEAEA" transform="matrix(1.00, 0.00, -0.00, -1.00, 91.2, 8.0)">l</text><text xml:space="preserve" font-family="HelveticaNeue-Medium,Helvetica Neue" font-size="52.0" fill="#EAEAEA" transform="matrix(1.00, 0.00, -0.00, -1.00, 103.7, 8.0)">i</text><text xml:space="preserve" font-family="HelveticaNeue-Medium,Helvetica Neue" font-size="52.0" fill="#EAEAEA" transform="matrix(1.00, 0.00, -0.00, -1.00, 116.3, 8.0)">e</text><text xml:space="preserve" font-family="HelveticaNeue-Medium,Helvetica Neue" font-size="52.0" fill="#EAEAEA" transform="matrix(1.00, 0.00, -0.00, -1.00, 145.2, 8.0)">v</text><text xml:space="preserve" font-family="HelveticaNeue-Medium,Helvetica Neue" font-size="52.0" fill="#EAEAEA" transform="matrix(1.00, 0.00, -0.00, -1.00, 172.2, 8.0)">e</text><text xml:space="preserve" font-family="HelveticaNeue-Medium,Helvetica Neue" font-size="52.0" fill="#EAEAEA" transform="matrix(1.00, 0.00, -0.00, -1.00, 201.1, 8.0)"> </text><text xml:space="preserve" font-family="HelveticaNeue-Medium,Helvetica Neue" font-size="52.0" fill="#EAEAEA" transform="matrix(1.00, 0.00, -0.00, -1.00, 215.5, 8.0)">i</text><text xml:space="preserve" font-family="HelveticaNeue-Medium,Helvetica Neue" font-size="52.0" fill="#EAEAEA" transform="matrix(1.00, 0.00, -0.00, -1.00, 228.1, 8.0)">n</text><text xml:space="preserve" font-family="HelveticaNeue-Medium,Helvetica Neue" font-size="52.0" fill="#EAEAEA" transform="matrix(1.00, 0.00, -0.00, -1.00, 257.9, 8.0)"> </text><text xml:space="preserve" font-family="HelveticaNeue-Medium,Helvetica Neue" font-size="52.0" fill="#EAEAEA" transform="matrix(1.00, 0.00, -0.00, -1.00, 272.4, 8.0)">w</text><text xml:space="preserve" font-family="HelveticaNeue-Medium,Helvetica Neue" font-size="52.0" fill="#EAEAEA" transform="matrix(1.00, 0.00, -0.00, -1.00, 312.8, 8.0)">h</text><text xml:space="preserve" font-family="HelveticaNeue-Medium,Helvetica Neue" font-size="52.0" fill="#EAEAEA" transform="matrix(1.00, 0.00, -0.00, -1.00, 342.7, 8.0)">a</text><text xml:space="preserve" font-family="HelveticaNeue-Medium,Helvetica Neue" font-size="52.0" fill="#EAEAEA" transform="matrix(1.00, 0.00, -0.00, -1.00, 371.6, 8.0)">t</text><text xml:space="preserve" font-family="HelveticaNeue-Medium,Helvetica Neue" font-size="52.0" fill="#EAEAEA" transform="matrix(1.00, 0.00, -0.00, -1.00, 388.9, 8.0)"> </text><text xml:space="preserve" font-family="HelveticaNeue-Medium,Helvetica Neue" font-size="52.0" fill="#EAEAEA" transform="matrix(1.00, 0.00, -0.00, -1.00, 403.4, 8.0)">w</text><text xml:space="preserve" font-family="HelveticaNeue-Medium,Helvetica Neue" font-size="52.0" fill="#EAEAEA" transform="matrix(1.00, 0.00, -0.00, -1.00, 443.8, 8.0)">e</text><text xml:space="preserve" font-family="HelveticaNeue-Medium,Helvetica Neue" font-size="52.0" fill="#EAEAEA" transform="matrix(1.00, 0.00, -0.00, -1.00, 472.7, 8.0)"> </text><text xml:space="preserve" font-family="HelveticaNeue-Medium,Helvetica Neue" font-size="52.0" fill="#EAEAEA" transform="matrix(1.00, 0.00, -0.00, -1.00, 487.2, 8.0)">a</text><text xml:space="preserve" font-family="HelveticaNeue-Medium,Helvetica Neue" font-size="52.0" fill="#EAEAEA" transform="matrix(1.00, 0.00, -0.00, -1.00, 516.1, 8.0)">r</text><text xml:space="preserve" font-family="HelveticaNeue-Medium,Helvetica Neue" font-size="52.0" fill="#EAEAEA" transform="matrix(1.00, 0.00, -0.00, -1.00, 533.5, 8.0)">e</text></g></svg>