<?xml version="1.0" encoding="UTF-8" standalone="no"?><svg xmlns="http://www.w3.org/2000/svg" xmlns:xlink="http://www.w3.org/1999/xlink" clip-rule="evenodd" stroke-miterlimit="10" viewBox="0 0 435 1072"><desc>SVG generated by Keynote</desc><defs></defs><g transform="matrix(1.00, 0.00, -0.00, -1.00, 0.0, 1072.0)"><g><clipPath id="clip0x6080020aedc0"><path d="M 1.0 1071.0 L 421.0 1071.0 L 421.0 974.0 L 1.0 974.0 Z M 0.7 1071.0 "></path></clipPath><g clip-path="url(#clip0x6080020aedc0)"><g><clipPath id="clip0x6080020adf20"><path d="M 0.7 974.0 L 421.4 974.0 L 421.4 1071.0 L 0.7 1071.0 Z M 0.7 974.0 "></path></clipPath><g clip-path="url(#clip0x6080020adf20)"><image xlink:href="D5D65C5743220230799F27C4ADDE4CA1.png" width="286.00" height="66.00" transform="matrix(1.47, 0.00, -0.00, -1.47, 1.0, 1071.0)"></image></g></g></g></g><g><clipPath id="clip0x6000020b7880"><path d="M 0.7 835.0 L 99.4 835.0 L 99.4 932.0 L 0.7 932.0 Z M 0.7 835.0 "></path></clipPath><g clip-path="url(#clip0x6000020b7880)"><image xlink:href="D3C6A1FFA4B6CBAA18A5FCF1FEC4605B.png" width="800.00" height="787.00" transform="matrix(0.12, 0.00, -0.00, -0.12, 1.0, 932.0)"></image></g></g><g><clipPath id="clip0x608001eb6ce0"><path d="M 97.8 835.0 L 372.2 835.0 L 372.2 932.0 L 97.8 932.0 Z M 97.8 835.0 "></path></clipPath><g clip-path="url(#clip0x608001eb6ce0)"><image xlink:href="CE7ACA73D529D34CAB9EADD1E39B6382.png" width="1108.00" height="392.00" transform="matrix(0.25, 0.00, -0.00, -0.25, 98.0, 932.0)"></image></g></g><g><clipPath id="clip0x6000018a0a20"><path d="M 1.0 793.0 L 434.0 793.0 L 434.0 696.0 L 1.0 696.0 Z M 0.7 793.0 "></path></clipPath><g clip-path="url(#clip0x6000018a0a20)"><g><clipPath id="clip0x6000014a89a0"><path d="M 0.7 696.0 L 434.1 696.0 L 434.1 793.0 L 0.7 793.0 Z M 0.7 696.0 "></path></clipPath><g clip-path="url(#clip0x6000014a89a0)"><image xlink:href="B3720A27DE2BD867F11C97A9F9D2F0F6.png" width="344.00" height="86.00" transform="matrix(1.33, 0.00, -0.00, -1.33, -24.0, 810.0)"></image></g></g></g></g><g><clipPath id="clip0x6080018b5540"><path d="M 1.0 654.0 L 390.0 654.0 L 390.0 557.0 L 1.0 557.0 Z M 0.7 654.0 "></path></clipPath><g clip-path="url(#clip0x6080018b5540)"><g><clipPath id="clip0x6080024a88e0"><path d="M 0.7 557.0 L 390.3 557.0 L 390.3 654.0 L 0.7 654.0 Z M 0.7 557.0 "></path></clipPath><g clip-path="url(#clip0x6080024a88e0)"><image xlink:href="B244DF381ABB89EC5CBE3EA9C340184C.png" width="374.00" height="114.00" transform="matrix(1.22, 0.00, -0.00, -1.22, -33.0, 675.0)"></image></g></g></g></g><g><clipPath id="clip0x6000022b3e60"><path d="M 1.0 515.0 L 313.0 515.0 L 313.0 418.0 L 1.0 418.0 Z M 0.7 515.0 "></path></clipPath><g clip-path="url(#clip0x6000022b3e60)"><g><clipPath id="clip0x6000022ae7c0"><path d="M 0.7 418.0 L 313.3 418.0 L 313.3 515.0 L 0.7 515.0 Z M 0.7 418.0 "></path></clipPath><g clip-path="url(#clip0x6000022ae7c0)"><image xlink:href="194A967C8F630F1F66743E8A1D7E5604.png" width="888.00" height="361.00" transform="matrix(0.39, 0.00, -0.00, -0.39, -16.0, 541.0)"></image></g></g></g></g><g><clipPath id="clip0x6080022ba9a0"><path d="M 0.7 279.0 L 428.2 279.0 L 428.2 376.0 L 0.7 376.0 Z M 0.7 279.0 "></path></clipPath><g clip-path="url(#clip0x6080022ba9a0)"><image xlink:href="FD21B9AEBE16575D1AA5055F8D4D80C8.png" width="458.00" height="104.00" transform="matrix(0.93, 0.00, -0.00, -0.93, 1.0, 376.0)"></image></g></g><g><clipPath id="clip0x600001cbf860"><path d="M 1.0 237.0 L 134.0 237.0 L 134.0 140.0 L 1.0 140.0 Z M 0.7 237.0 "></path></clipPath><g clip-path="url(#clip0x600001cbf860)"><g><clipPath id="clip0x6000016aaf20"><path d="M 0.7 140.0 L 134.2 140.0 L 134.2 237.0 L 0.7 237.0 Z M 0.7 140.0 "></path></clipPath><g clip-path="url(#clip0x6000016aaf20)"><image xlink:href="FD994E5E8276373680ED63A3F456E5F9.png" width="101.00" height="86.00" transform="matrix(1.69, 0.00, -0.00, -1.69, -37.0, 237.0)"></image></g></g></g></g><g><clipPath id="clip0x600000cbecc0"><path d="M 128.0 227.0 L 412.0 227.0 L 412.0 150.0 L 128.0 150.0 Z M 127.5 227.5 "></path></clipPath><g clip-path="url(#clip0x600000cbecc0)"><g><clipPath id="clip0x6000022bc7a0"><path d="M 127.5 149.6 L 412.3 149.6 L 412.3 227.5 L 127.5 227.5 Z M 127.5 149.6 "></path></clipPath><g clip-path="url(#clip0x6000022bc7a0)"><image xlink:href="../../7459720B-D105-4F67-86DE-04B4FB35086D/assets/FD994E5E8276373680ED63A3F456E5F9.png" width="101.00" height="86.00" transform="matrix(2.81, 0.00, -0.00, -2.81, 128.0, 392.0)"></image></g></g></g></g><g><clipPath id="clip0x6000016bc620"><path d="M 0.7 1.0 L 339.8 1.0 L 339.8 98.0 L 0.7 98.0 Z M 0.7 1.0 "></path></clipPath><g clip-path="url(#clip0x6000016bc620)"><image xlink:href="A4426D356BC9F14058BFF281066CACB4.png" width="552.00" height="158.00" transform="matrix(0.61, 0.00, -0.00, -0.61, 1.0, 98.0)"></image></g></g></g></svg>